<?xml version="1.0" encoding="UTF-8" standalone="no"?><!DOCTYPE svg PUBLIC "-//W3C//DTD SVG 1.1//EN" "http://www.w3.org/Graphics/SVG/1.1/DTD/svg11.dtd"><!-- Generated by graphviz version 2.40.1 (20161225.0304)
 --><!-- Title: fsm Pages: 1 --><svg xmlns="http://www.w3.org/2000/svg" xmlns:xlink="http://www.w3.org/1999/xlink" width="2138pt" height="869pt" viewBox="0.00 0.00 2137.72 868.80">
<g id="graph0" class="graph" transform="scale(1 1) rotate(0) translate(14.4 854.4)">
<title>fsm</title>
<polygon fill="#ffffff" stroke="transparent" points="-14.4,14.4 -14.4,-854.4 2123.3217,-854.4 2123.3217,14.4 -14.4,14.4"/>
<!-- state_sig_proposal_collected -->
<g id="node1" class="node">
<title>state_sig_proposal_collected</title>
<ellipse fill="none" stroke="#000000" cx="1083.8037" cy="-822" rx="122.691" ry="18"/>
<text text-anchor="middle" x="1083.8037" y="-817.8" font-family="Times,serif" font-size="14.00" fill="#000000">state_sig_proposal_collected</text>
</g>
<!-- state_dkg_commits_await_confirmations -->
<g id="node2" class="node">
<title>state_dkg_commits_await_confirmations</title>
<ellipse fill="none" stroke="#000000" cx="1083.8037" cy="-661.2" rx="170.1847" ry="18"/>
<text text-anchor="middle" x="1083.8037" y="-657" font-family="Times,serif" font-size="14.00" fill="#000000">state_dkg_commits_await_confirmations</text>
</g>
<!-- state_sig_proposal_collected&#45;&gt;state_dkg_commits_await_confirmations -->
<g id="edge1" class="edge">
<title>state_sig_proposal_collected-&gt;state_dkg_commits_await_confirmations</title>
<path fill="none" stroke="#000000" d="M1083.8037,-803.8668C1083.8037,-776.1204 1083.8037,-722.8815 1083.8037,-689.8681"/>
<polygon fill="#000000" stroke="#000000" points="1087.3038,-689.5136 1083.8037,-679.5137 1080.3038,-689.5137 1087.3038,-689.5136"/>
<text text-anchor="middle" x="1150.289" y="-737.4" font-family="Times,serif" font-size="14.00" fill="#000000">event_dkg_init_process</text>
</g>
<!-- state_dkg_commits_await_confirmations&#45;&gt;state_dkg_commits_await_confirmations -->
<g id="edge5" class="edge">
<title>state_dkg_commits_await_confirmations-&gt;state_dkg_commits_await_confirmations</title>
<path fill="none" stroke="#000000" d="M1243.5346,-667.4859C1260.9336,-666.2836 1272.146,-664.1883 1272.146,-661.2 1272.146,-658.8421 1265.1649,-657.0401 1253.6719,-655.7941"/>
<polygon fill="#000000" stroke="#000000" points="1253.7999,-652.2922 1243.5346,-654.9141 1253.1944,-659.2659 1253.7999,-652.2922"/>
<text text-anchor="middle" x="1379.0577" y="-657" font-family="Times,serif" font-size="14.00" fill="#000000">event_dkg_commit_confirm_received</text>
</g>
<!-- state_dkg_commits_await_confirmations&#45;&gt;state_dkg_commits_await_confirmations -->
<g id="edge10" class="edge">
<title>state_dkg_commits_await_confirmations-&gt;state_dkg_commits_await_confirmations</title>
<path fill="none" stroke="#000000" d="M1204.2198,-673.9454C1325.4697,-679.3254 1485.9694,-675.077 1485.9694,-661.2 1485.9694,-647.7025 1334.127,-643.3141 1214.25,-648.0349"/>
<polygon fill="#000000" stroke="#000000" points="1214.0647,-644.5395 1204.2198,-648.4546 1214.3574,-651.5334 1214.0647,-644.5395"/>
<text text-anchor="middle" x="1593.2787" y="-657" font-family="Times,serif" font-size="14.00" fill="#000000">event_dkg_commits_validate_internal</text>
</g>
<!-- state_dkg_commits_await_canceled_by_timeout -->
<g id="node3" class="node">
<title>state_dkg_commits_await_canceled_by_timeout</title>
<ellipse fill="none" stroke="#000000" cx="709.8037" cy="-500.4" rx="199.1033" ry="18"/>
<text text-anchor="middle" x="709.8037" y="-496.2" font-family="Times,serif" font-size="14.00" fill="#000000">state_dkg_commits_await_canceled_by_timeout</text>
</g>
<!-- state_dkg_commits_await_confirmations&#45;&gt;state_dkg_commits_await_canceled_by_timeout -->
<g id="edge2" class="edge">
<title>state_dkg_commits_await_confirmations-&gt;state_dkg_commits_await_canceled_by_timeout</title>
<path fill="none" stroke="#000000" d="M960.8235,-648.6687C875.321,-637.5763 771.0692,-618.5256 738.4431,-589.2 721.3891,-573.8712 714.4386,-548.3427 711.6324,-528.5817"/>
<polygon fill="#000000" stroke="#000000" points="715.1019,-528.1153 710.4863,-518.5787 708.1474,-528.9121 715.1019,-528.1153"/>
<text text-anchor="middle" x="909.484" y="-576.6" font-family="Times,serif" font-size="14.00" fill="#000000">event_dkg_commits_confirm_canceled_by_timeout_internal</text>
</g>
<!-- state_dkg_deals_await_confirmations -->
<g id="node7" class="node">
<title>state_dkg_deals_await_confirmations</title>
<ellipse fill="none" stroke="#000000" cx="1083.8037" cy="-500.4" rx="156.8422" ry="18"/>
<text text-anchor="middle" x="1083.8037" y="-496.2" font-family="Times,serif" font-size="14.00" fill="#000000">state_dkg_deals_await_confirmations</text>
</g>
<!-- state_dkg_commits_await_confirmations&#45;&gt;state_dkg_deals_await_confirmations -->
<g id="edge17" class="edge">
<title>state_dkg_commits_await_confirmations-&gt;state_dkg_deals_await_confirmations</title>
<path fill="none" stroke="#000000" d="M1083.8037,-643.0668C1083.8037,-615.3204 1083.8037,-562.0815 1083.8037,-529.0681"/>
<polygon fill="#000000" stroke="#000000" points="1087.3038,-528.7136 1083.8037,-518.7137 1080.3038,-528.7137 1087.3038,-528.7136"/>
<text text-anchor="middle" x="1197.721" y="-576.6" font-family="Times,serif" font-size="14.00" fill="#000000">event_dkg_commits_confirmed_internal</text>
</g>
<!-- state_dkg_commits_await_canceled_by_error -->
<g id="node9" class="node">
<title>state_dkg_commits_await_canceled_by_error</title>
<ellipse fill="none" stroke="#000000" cx="1871.8037" cy="-500.4" rx="188.6087" ry="18"/>
<text text-anchor="middle" x="1871.8037" y="-496.2" font-family="Times,serif" font-size="14.00" fill="#000000">state_dkg_commits_await_canceled_by_error</text>
</g>
<!-- state_dkg_commits_await_confirmations&#45;&gt;state_dkg_commits_await_canceled_by_error -->
<g id="edge9" class="edge">
<title>state_dkg_commits_await_confirmations-&gt;state_dkg_commits_await_canceled_by_error</title>
<path fill="none" stroke="#000000" d="M1162.241,-645.194C1309.373,-615.1701 1625.938,-550.5716 1781.6144,-518.8041"/>
<polygon fill="#000000" stroke="#000000" points="1782.5341,-522.1887 1791.6323,-516.7598 1781.1344,-515.33 1782.5341,-522.1887"/>
<text text-anchor="middle" x="1637.0906" y="-576.6" font-family="Times,serif" font-size="14.00" fill="#000000">event_dkg_commit_confirm_canceled_by_error</text>
</g>
<!-- state_dkg_master_key_await_confirmations -->
<g id="node4" class="node">
<title>state_dkg_master_key_await_confirmations</title>
<ellipse fill="none" stroke="#000000" cx="558.8037" cy="-178.8" rx="181.6834" ry="18"/>
<text text-anchor="middle" x="558.8037" y="-174.6" font-family="Times,serif" font-size="14.00" fill="#000000">state_dkg_master_key_await_confirmations</text>
</g>
<!-- state_dkg_master_key_await_confirmations&#45;&gt;state_dkg_master_key_await_confirmations -->
<g id="edge15" class="edge">
<title>state_dkg_master_key_await_confirmations-&gt;state_dkg_master_key_await_confirmations</title>
<path fill="none" stroke="#000000" d="M729.5077,-184.9898C747.1264,-183.7734 758.3954,-181.7102 758.3954,-178.8 758.3954,-176.5037 751.3791,-174.7347 739.7633,-173.493"/>
<polygon fill="#000000" stroke="#000000" points="739.771,-169.9808 729.5077,-172.6102 739.1706,-176.955 739.771,-169.9808"/>
<text text-anchor="middle" x="876.1837" y="-174.6" font-family="Times,serif" font-size="14.00" fill="#000000">event_dkg_master_key_confirm_received</text>
</g>
<!-- state_dkg_master_key_await_confirmations&#45;&gt;state_dkg_master_key_await_confirmations -->
<g id="edge22" class="edge">
<title>state_dkg_master_key_await_confirmations-&gt;state_dkg_master_key_await_confirmations</title>
<path fill="none" stroke="#000000" d="M687.4338,-191.5112C818.6513,-196.9433 993.972,-192.7063 993.972,-178.8 993.972,-165.2468 827.4413,-160.8781 697.5106,-165.6937"/>
<polygon fill="#000000" stroke="#000000" points="697.289,-162.1996 687.4338,-166.0888 697.5633,-169.1943 697.289,-162.1996"/>
<text text-anchor="middle" x="1109.4356" y="-174.6" font-family="Times,serif" font-size="14.00" fill="#000000">event_dkg_master_key_validate_internal</text>
</g>
<!-- state_dkg_master_key_await_canceled_by_error -->
<g id="node5" class="node">
<title>state_dkg_master_key_await_canceled_by_error</title>
<ellipse fill="none" stroke="#000000" cx="199.8037" cy="-18" rx="199.6076" ry="18"/>
<text text-anchor="middle" x="199.8037" y="-13.8" font-family="Times,serif" font-size="14.00" fill="#000000">state_dkg_master_key_await_canceled_by_error</text>
</g>
<!-- state_dkg_master_key_await_confirmations&#45;&gt;state_dkg_master_key_await_canceled_by_error -->
<g id="edge3" class="edge">
<title>state_dkg_master_key_await_confirmations-&gt;state_dkg_master_key_await_canceled_by_error</title>
<path fill="none" stroke="#000000" d="M411.47,-168.2516C266.106,-156.3098 62.1258,-134.8154 37.7151,-106.8 9.3479,-74.2437 55.5986,-51.3765 105.8547,-37.0085"/>
<polygon fill="#000000" stroke="#000000" points="106.8839,-40.3556 115.6026,-34.3361 105.033,-33.6047 106.8839,-40.3556"/>
<text text-anchor="middle" x="208.848" y="-94.2" font-family="Times,serif" font-size="14.00" fill="#000000">event_dkg_master_key_confirm_canceled_by_error_internal</text>
</g>
<!-- state_dkg_master_key_await_confirmations&#45;&gt;state_dkg_master_key_await_canceled_by_error -->
<g id="edge8" class="edge">
<title>state_dkg_master_key_await_confirmations-&gt;state_dkg_master_key_await_canceled_by_error</title>
<path fill="none" stroke="#000000" d="M509.7863,-161.3811C476.9564,-148.6324 433.5028,-129.6165 398.4767,-106.8 389.1227,-100.7067 389.2824,-95.8975 379.8037,-90 344.8009,-68.2216 302.0872,-50.801 267.0541,-38.5537"/>
<polygon fill="#000000" stroke="#000000" points="267.984,-35.1725 257.3894,-35.2371 265.7119,-41.7935 267.984,-35.1725"/>
<text text-anchor="middle" x="544.9672" y="-94.2" font-family="Times,serif" font-size="14.00" fill="#000000">event_dkg_master_key_confirm_canceled_by_error</text>
</g>
<!-- state_dkg_master_key_collected -->
<g id="node6" class="node">
<title>state_dkg_master_key_collected</title>
<ellipse fill="none" stroke="#000000" cx="716.8037" cy="-18" rx="137.1406" ry="18"/>
<text text-anchor="middle" x="716.8037" y="-13.8" font-family="Times,serif" font-size="14.00" fill="#000000">state_dkg_master_key_collected</text>
</g>
<!-- state_dkg_master_key_await_confirmations&#45;&gt;state_dkg_master_key_collected -->
<g id="edge4" class="edge">
<title>state_dkg_master_key_await_confirmations-&gt;state_dkg_master_key_collected</title>
<path fill="none" stroke="#000000" d="M614.4011,-161.6569C642.3828,-150.3239 674.5688,-132.6913 694.8037,-106.8 708.2745,-89.5635 713.6184,-65.1693 715.681,-46.309"/>
<polygon fill="#000000" stroke="#000000" points="719.1797,-46.4706 716.5366,-36.2108 712.2047,-45.8796 719.1797,-46.4706"/>
<text text-anchor="middle" x="825.8753" y="-94.2" font-family="Times,serif" font-size="14.00" fill="#000000">event_dkg_master_key_confirmed_internal</text>
</g>
<!-- state_dkg_master_key_await_canceled_by_timeout -->
<g id="node12" class="node">
<title>state_dkg_master_key_await_canceled_by_timeout</title>
<ellipse fill="none" stroke="#000000" cx="1082.8037" cy="-18" rx="210.6018" ry="18"/>
<text text-anchor="middle" x="1082.8037" y="-13.8" font-family="Times,serif" font-size="14.00" fill="#000000">state_dkg_master_key_await_canceled_by_timeout</text>
</g>
<!-- state_dkg_master_key_await_confirmations&#45;&gt;state_dkg_master_key_await_canceled_by_timeout -->
<g id="edge16" class="edge">
<title>state_dkg_master_key_await_confirmations-&gt;state_dkg_master_key_await_canceled_by_timeout</title>
<path fill="none" stroke="#000000" d="M699.172,-167.3332C775.9785,-157.5765 871.5578,-139.6407 951.8037,-106.8 990.1852,-91.0924 1028.8465,-63.0378 1054.1152,-42.6562"/>
<polygon fill="#000000" stroke="#000000" points="1056.6375,-45.1143 1062.1514,-36.0673 1052.1992,-39.7011 1056.6375,-45.1143"/>
<text text-anchor="middle" x="1162.6383" y="-94.2" font-family="Times,serif" font-size="14.00" fill="#000000">event_dkg_master_key_confirm_canceled_by_timeout_internal</text>
</g>
<!-- state_dkg_deals_await_confirmations&#45;&gt;state_dkg_deals_await_confirmations -->
<g id="edge7" class="edge">
<title>state_dkg_deals_await_confirmations-&gt;state_dkg_deals_await_confirmations</title>
<path fill="none" stroke="#000000" d="M1230.5497,-506.8009C1247.6196,-505.6196 1258.7248,-503.4859 1258.7248,-500.4 1258.7248,-497.9891 1251.9467,-496.1595 1240.8418,-494.911"/>
<polygon fill="#000000" stroke="#000000" points="1240.8197,-491.3955 1230.5497,-493.9991 1240.2018,-498.3681 1240.8197,-491.3955"/>
<text text-anchor="middle" x="1356.3055" y="-496.2" font-family="Times,serif" font-size="14.00" fill="#000000">event_dkg_deals_validate_internal</text>
</g>
<!-- state_dkg_deals_await_confirmations&#45;&gt;state_dkg_deals_await_confirmations -->
<g id="edge11" class="edge">
<title>state_dkg_deals_await_confirmations-&gt;state_dkg_deals_await_confirmations</title>
<path fill="none" stroke="#000000" d="M1194.8259,-513.134C1306.4711,-518.5314 1453.8862,-514.2867 1453.8862,-500.4 1453.8862,-486.9337 1315.2615,-482.5344 1205.0588,-487.2023"/>
<polygon fill="#000000" stroke="#000000" points="1204.6572,-483.7168 1194.8259,-487.666 1204.9741,-490.7096 1204.6572,-483.7168"/>
<text text-anchor="middle" x="1551.0693" y="-496.2" font-family="Times,serif" font-size="14.00" fill="#000000">event_dkg_deal_confirm_received</text>
</g>
<!-- state_dkg_deals_await_canceled_by_timeout -->
<g id="node8" class="node">
<title>state_dkg_deals_await_canceled_by_timeout</title>
<ellipse fill="none" stroke="#000000" cx="704.8037" cy="-339.6" rx="185.7607" ry="18"/>
<text text-anchor="middle" x="704.8037" y="-335.4" font-family="Times,serif" font-size="14.00" fill="#000000">state_dkg_deals_await_canceled_by_timeout</text>
</g>
<!-- state_dkg_deals_await_confirmations&#45;&gt;state_dkg_deals_await_canceled_by_timeout -->
<g id="edge6" class="edge">
<title>state_dkg_deals_await_confirmations-&gt;state_dkg_deals_await_canceled_by_timeout</title>
<path fill="none" stroke="#000000" d="M980.9886,-486.7246C899.3363,-474.2344 793.2109,-453.858 757.9003,-428.4 736.9599,-413.3025 722.7969,-387.1693 714.4015,-367.1496"/>
<polygon fill="#000000" stroke="#000000" points="717.5626,-365.6252 710.6352,-357.6089 711.0515,-368.1955 717.5626,-365.6252"/>
<text text-anchor="middle" x="919.7554" y="-415.8" font-family="Times,serif" font-size="14.00" fill="#000000">event_dkg_deals_confirm_canceled_by_timeout_internal</text>
</g>
<!-- state_dkg_deals_await_canceled_by_error -->
<g id="node10" class="node">
<title>state_dkg_deals_await_canceled_by_error</title>
<ellipse fill="none" stroke="#000000" cx="1083.8037" cy="-339.6" rx="175.2663" ry="18"/>
<text text-anchor="middle" x="1083.8037" y="-335.4" font-family="Times,serif" font-size="14.00" fill="#000000">state_dkg_deals_await_canceled_by_error</text>
</g>
<!-- state_dkg_deals_await_confirmations&#45;&gt;state_dkg_deals_await_canceled_by_error -->
<g id="edge12" class="edge">
<title>state_dkg_deals_await_confirmations-&gt;state_dkg_deals_await_canceled_by_error</title>
<path fill="none" stroke="#000000" d="M1083.8037,-482.2668C1083.8037,-454.5204 1083.8037,-401.2815 1083.8037,-368.2681"/>
<polygon fill="#000000" stroke="#000000" points="1087.3038,-367.9136 1083.8037,-357.9137 1080.3038,-367.9137 1087.3038,-367.9136"/>
<text text-anchor="middle" x="1209.362" y="-415.8" font-family="Times,serif" font-size="14.00" fill="#000000">event_dkg_deal_confirm_canceled_by_error</text>
</g>
<!-- state_dkg_responses_await_confirmations -->
<g id="node11" class="node">
<title>state_dkg_responses_await_confirmations</title>
<ellipse fill="none" stroke="#000000" cx="1451.8037" cy="-339.6" rx="174.7407" ry="18"/>
<text text-anchor="middle" x="1451.8037" y="-335.4" font-family="Times,serif" font-size="14.00" fill="#000000">state_dkg_responses_await_confirmations</text>
</g>
<!-- state_dkg_deals_await_confirmations&#45;&gt;state_dkg_responses_await_confirmations -->
<g id="edge18" class="edge">
<title>state_dkg_deals_await_confirmations-&gt;state_dkg_responses_await_confirmations</title>
<path fill="none" stroke="#000000" d="M1168.405,-485.2099C1219.5782,-473.9384 1285.0927,-455.7252 1338.8037,-428.4 1371.6817,-411.6735 1404.2728,-384.6498 1425.9427,-364.801"/>
<polygon fill="#000000" stroke="#000000" points="1428.4793,-367.2216 1433.4126,-357.8454 1423.709,-362.0986 1428.4793,-367.2216"/>
<text text-anchor="middle" x="1470.9924" y="-415.8" font-family="Times,serif" font-size="14.00" fill="#000000">event_dkg_deals_confirmed_internal</text>
</g>
<!-- state_dkg_responses_await_confirmations&#45;&gt;state_dkg_master_key_await_confirmations -->
<g id="edge14" class="edge">
<title>state_dkg_responses_await_confirmations-&gt;state_dkg_master_key_await_confirmations</title>
<path fill="none" stroke="#000000" d="M1364.9608,-323.9624C1197.7116,-293.8464 831.9685,-227.988 656.5071,-196.3932"/>
<polygon fill="#000000" stroke="#000000" points="656.9686,-192.9201 646.5066,-194.5924 655.728,-199.8093 656.9686,-192.9201"/>
<text text-anchor="middle" x="1149.822" y="-255" font-family="Times,serif" font-size="14.00" fill="#000000">event_dkg_responses_confirmed_internal</text>
</g>
<!-- state_dkg_responses_await_confirmations&#45;&gt;state_dkg_responses_await_confirmations -->
<g id="edge13" class="edge">
<title>state_dkg_responses_await_confirmations-&gt;state_dkg_responses_await_confirmations</title>
<path fill="none" stroke="#000000" d="M1615.8573,-345.8383C1633.2548,-344.6286 1644.424,-342.5492 1644.424,-339.6 1644.424,-337.2729 1637.4698,-335.4873 1625.9889,-334.2433"/>
<polygon fill="#000000" stroke="#000000" points="1626.1231,-330.7418 1615.8573,-333.3617 1625.5162,-337.7155 1626.1231,-330.7418"/>
<text text-anchor="middle" x="1754.4367" y="-335.4" font-family="Times,serif" font-size="14.00" fill="#000000">event_dkg_response_confirm_received</text>
</g>
<!-- state_dkg_responses_await_confirmations&#45;&gt;state_dkg_responses_await_confirmations -->
<g id="edge21" class="edge">
<title>state_dkg_responses_await_confirmations-&gt;state_dkg_responses_await_confirmations</title>
<path fill="none" stroke="#000000" d="M1575.1957,-352.3454C1699.5909,-357.7254 1864.4494,-353.477 1864.4494,-339.6 1864.4494,-326.1025 1708.4833,-321.7141 1585.4866,-326.4349"/>
<polygon fill="#000000" stroke="#000000" points="1585.0447,-322.9499 1575.1957,-326.8546 1585.3301,-329.9441 1585.0447,-322.9499"/>
<text text-anchor="middle" x="1974.8597" y="-335.4" font-family="Times,serif" font-size="14.00" fill="#000000">event_dkg_responses_validate_internal</text>
</g>
<!-- state_dkg_responses_await_canceled_by_error -->
<g id="node13" class="node">
<title>state_dkg_responses_await_canceled_by_error</title>
<ellipse fill="none" stroke="#000000" cx="1451.8037" cy="-178.8" rx="192.6649" ry="18"/>
<text text-anchor="middle" x="1451.8037" y="-174.6" font-family="Times,serif" font-size="14.00" fill="#000000">state_dkg_responses_await_canceled_by_error</text>
</g>
<!-- state_dkg_responses_await_confirmations&#45;&gt;state_dkg_responses_await_canceled_by_error -->
<g id="edge19" class="edge">
<title>state_dkg_responses_await_confirmations-&gt;state_dkg_responses_await_canceled_by_error</title>
<path fill="none" stroke="#000000" d="M1451.8037,-321.4668C1451.8037,-293.7204 1451.8037,-240.4815 1451.8037,-207.4681"/>
<polygon fill="#000000" stroke="#000000" points="1455.3038,-207.1136 1451.8037,-197.1137 1448.3038,-207.1137 1455.3038,-207.1136"/>
<text text-anchor="middle" x="1590.1916" y="-255" font-family="Times,serif" font-size="14.00" fill="#000000">event_dkg_response_confirm_canceled_by_error</text>
</g>
<!-- state_dkg_responses_sending_canceled_by_timeout -->
<g id="node14" class="node">
<title>state_dkg_responses_sending_canceled_by_timeout</title>
<ellipse fill="none" stroke="#000000" cx="1875.8037" cy="-178.8" rx="212.9148" ry="18"/>
<text text-anchor="middle" x="1875.8037" y="-174.6" font-family="Times,serif" font-size="14.00" fill="#000000">state_dkg_responses_sending_canceled_by_timeout</text>
</g>
<!-- state_dkg_responses_await_confirmations&#45;&gt;state_dkg_responses_sending_canceled_by_timeout -->
<g id="edge20" class="edge">
<title>state_dkg_responses_await_confirmations-&gt;state_dkg_responses_sending_canceled_by_timeout</title>
<path fill="none" stroke="#000000" d="M1540.7748,-324.0424C1597.2055,-312.4298 1670.9652,-293.9834 1732.8037,-267.6 1773.2405,-250.3477 1815.5342,-222.7067 1843.5384,-202.8445"/>
<polygon fill="#000000" stroke="#000000" points="1845.6685,-205.624 1851.7527,-196.9503 1841.5874,-199.9366 1845.6685,-205.624"/>
<text text-anchor="middle" x="1937.8627" y="-255" font-family="Times,serif" font-size="14.00" fill="#000000">event_dkg_response_confirm_canceled_by_timeout_internal</text>
</g>
</g>
</svg>