<?xml version="1.0" encoding="UTF-8" standalone="no"?><!DOCTYPE svg PUBLIC "-//W3C//DTD SVG 1.1//EN" "http://www.w3.org/Graphics/SVG/1.1/DTD/svg11.dtd"><!-- Generated by graphviz version 2.40.1 (20161225.0304)
 --><!-- Title: fsm Pages: 1 --><svg xmlns="http://www.w3.org/2000/svg" xmlns:xlink="http://www.w3.org/1999/xlink" width="2905pt" height="854pt" viewBox="0.00 0.00 2904.55 854.40">
<g id="graph0" class="graph" transform="scale(1 1) rotate(0) translate(7.2 847.2)">
<title>fsm</title>
<polygon fill="#ffffff" stroke="transparent" points="-7.2,7.2 -7.2,-847.2 2897.346,-847.2 2897.346,7.2 -7.2,7.2"/>
<!-- state_sig_proposal_collected -->
<g id="node1" class="node">
<title>state_sig_proposal_collected</title>
<ellipse fill="none" stroke="#000000" cx="2245.8037" cy="-822" rx="122.691" ry="18"/>
<text text-anchor="middle" x="2245.8037" y="-817.8" font-family="Times,serif" font-size="14.00" fill="#000000">state_sig_proposal_collected</text>
</g>
<!-- state_dkg_commits_await_confirmations -->
<g id="node2" class="node">
<title>state_dkg_commits_await_confirmations</title>
<ellipse fill="none" stroke="#000000" cx="2245.8037" cy="-661.2" rx="170.1847" ry="18"/>
<text text-anchor="middle" x="2245.8037" y="-657" font-family="Times,serif" font-size="14.00" fill="#000000">state_dkg_commits_await_confirmations</text>
</g>
<!-- state_sig_proposal_collected&#45;&gt;state_dkg_commits_await_confirmations -->
<g id="edge1" class="edge">
<title>state_sig_proposal_collected-&gt;state_dkg_commits_await_confirmations</title>
<path fill="none" stroke="#000000" d="M2245.8037,-803.8668C2245.8037,-776.1204 2245.8037,-722.8815 2245.8037,-689.8681"/>
<polygon fill="#000000" stroke="#000000" points="2249.3038,-689.5136 2245.8037,-679.5137 2242.3038,-689.5137 2249.3038,-689.5136"/>
<text text-anchor="middle" x="2312.289" y="-737.4" font-family="Times,serif" font-size="14.00" fill="#000000">event_dkg_init_process</text>
</g>
<!-- state_dkg_commits_await_confirmations&#45;&gt;state_dkg_commits_await_confirmations -->
<g id="edge2" class="edge">
<title>state_dkg_commits_await_confirmations-&gt;state_dkg_commits_await_confirmations</title>
<path fill="none" stroke="#000000" d="M2414.7239,-663.5566C2414.9212,-663.4676 2415.1071,-663.3775 2415.2765,-663.2816"/>
<polygon fill="#000000" stroke="#000000" points="2419.4327,-668.3344 2414.7239,-658.8434 2412.4864,-669.1993 2419.4327,-668.3344"/>
<text text-anchor="middle" x="2524.4553" y="-657" font-family="Times,serif" font-size="14.00" fill="#000000">event_dkg_commits_validate_internal</text>
</g>
<!-- state_dkg_commits_await_confirmations&#45;&gt;state_dkg_commits_await_confirmations -->
<g id="edge15" class="edge">
<title>state_dkg_commits_await_confirmations-&gt;state_dkg_commits_await_confirmations</title>
<path fill="none" stroke="#000000" d="M2363.7439,-674.2204C2479.1261,-679.1729 2631.7646,-674.8328 2631.7646,-661.2 2631.7646,-647.9666 2487.9387,-643.4893 2373.9761,-647.7682"/>
<polygon fill="#000000" stroke="#000000" points="2373.5952,-644.2806 2363.7439,-648.1796 2373.8765,-651.275 2373.5952,-644.2806"/>
<text text-anchor="middle" x="2743.9263" y="-657" font-family="Times,serif" font-size="14.00" fill="#000000">   event_dkg_commit_confirm_received</text>
</g>
<!-- state_dkg_deals_await_confirmations -->
<g id="node3" class="node">
<title>state_dkg_deals_await_confirmations</title>
<ellipse fill="none" stroke="#000000" cx="1460.8037" cy="-500.4" rx="156.8422" ry="18"/>
<text text-anchor="middle" x="1460.8037" y="-496.2" font-family="Times,serif" font-size="14.00" fill="#000000">state_dkg_deals_await_confirmations</text>
</g>
<!-- state_dkg_commits_await_confirmations&#45;&gt;state_dkg_deals_await_confirmations -->
<g id="edge18" class="edge">
<title>state_dkg_commits_await_confirmations-&gt;state_dkg_deals_await_confirmations</title>
<path fill="none" stroke="#000000" d="M2167.665,-645.194C2020.1445,-614.9758 1701.644,-549.7339 1547.6586,-518.1914"/>
<polygon fill="#000000" stroke="#000000" points="1548.2563,-514.7412 1537.7573,-516.1632 1546.8515,-521.5989 1548.2563,-514.7412"/>
<text text-anchor="middle" x="1991.721" y="-576.6" font-family="Times,serif" font-size="14.00" fill="#000000">event_dkg_commits_confirmed_internal</text>
</g>
<!-- state_dkg_commits_await_canceled_by_error -->
<g id="node12" class="node">
<title>state_dkg_commits_await_canceled_by_error</title>
<ellipse fill="none" stroke="#000000" cx="2245.8037" cy="-500.4" rx="188.6087" ry="18"/>
<text text-anchor="middle" x="2245.8037" y="-496.2" font-family="Times,serif" font-size="14.00" fill="#000000">state_dkg_commits_await_canceled_by_error</text>
</g>
<!-- state_dkg_commits_await_confirmations&#45;&gt;state_dkg_commits_await_canceled_by_error -->
<g id="edge16" class="edge">
<title>state_dkg_commits_await_confirmations-&gt;state_dkg_commits_await_canceled_by_error</title>
<path fill="none" stroke="#000000" d="M2245.8037,-643.0668C2245.8037,-615.3204 2245.8037,-562.0815 2245.8037,-529.0681"/>
<polygon fill="#000000" stroke="#000000" points="2249.3038,-528.7136 2245.8037,-518.7137 2242.3038,-528.7137 2249.3038,-528.7136"/>
<text text-anchor="middle" x="2381.0906" y="-576.6" font-family="Times,serif" font-size="14.00" fill="#000000">event_dkg_commit_confirm_canceled_by_error</text>
</g>
<!-- state_dkg_commits_await_canceled_by_timeout -->
<g id="node13" class="node">
<title>state_dkg_commits_await_canceled_by_timeout</title>
<ellipse fill="none" stroke="#000000" cx="2634.8037" cy="-500.4" rx="199.1033" ry="18"/>
<text text-anchor="middle" x="2634.8037" y="-496.2" font-family="Times,serif" font-size="14.00" fill="#000000">state_dkg_commits_await_canceled_by_timeout</text>
</g>
<!-- state_dkg_commits_await_confirmations&#45;&gt;state_dkg_commits_await_canceled_by_timeout -->
<g id="edge17" class="edge">
<title>state_dkg_commits_await_confirmations-&gt;state_dkg_commits_await_canceled_by_timeout</title>
<path fill="none" stroke="#000000" d="M2337.3881,-646.0193C2391.4214,-634.8588 2460.1041,-616.7574 2516.8037,-589.2 2551.2517,-572.4574 2585.6775,-545.0166 2608.3767,-525.0644"/>
<polygon fill="#000000" stroke="#000000" points="2610.7693,-527.6203 2615.8975,-518.3492 2606.1071,-522.3988 2610.7693,-527.6203"/>
<text text-anchor="middle" x="2715.484" y="-576.6" font-family="Times,serif" font-size="14.00" fill="#000000">event_dkg_commits_confirm_canceled_by_timeout_internal</text>
</g>
<!-- state_dkg_deals_await_confirmations&#45;&gt;state_dkg_deals_await_confirmations -->
<g id="edge11" class="edge">
<title>state_dkg_deals_await_confirmations-&gt;state_dkg_deals_await_confirmations</title>
<path fill="none" stroke="#000000" d="M1616.4924,-502.7566C1616.6743,-502.6676 1616.8456,-502.5775 1617.0017,-502.4816"/>
<polygon fill="#000000" stroke="#000000" points="1621.1098,-507.5792 1616.4924,-498.0434 1614.1554,-508.3773 1621.1098,-507.5792"/>
<text text-anchor="middle" x="1716.3055" y="-496.2" font-family="Times,serif" font-size="14.00" fill="#000000">event_dkg_deals_validate_internal</text>
</g>
<!-- state_dkg_deals_await_confirmations&#45;&gt;state_dkg_deals_await_confirmations -->
<g id="edge19" class="edge">
<title>state_dkg_deals_await_confirmations-&gt;state_dkg_deals_await_confirmations</title>
<path fill="none" stroke="#000000" d="M1569.3374,-513.4416C1674.8447,-518.3605 1813.8862,-514.0133 1813.8862,-500.4 1813.8862,-487.2254 1683.662,-482.7293 1579.6365,-486.9117"/>
<polygon fill="#000000" stroke="#000000" points="1579.1763,-483.4283 1569.3374,-487.3584 1579.4797,-490.4217 1579.1763,-483.4283"/>
<text text-anchor="middle" x="1918.0693" y="-496.2" font-family="Times,serif" font-size="14.00" fill="#000000">    event_dkg_deal_confirm_received</text>
</g>
<!-- state_dkg_deals_await_canceled_by_error -->
<g id="node4" class="node">
<title>state_dkg_deals_await_canceled_by_error</title>
<ellipse fill="none" stroke="#000000" cx="1109.8037" cy="-339.6" rx="175.2663" ry="18"/>
<text text-anchor="middle" x="1109.8037" y="-335.4" font-family="Times,serif" font-size="14.00" fill="#000000">state_dkg_deals_await_canceled_by_error</text>
</g>
<!-- state_dkg_deals_await_confirmations&#45;&gt;state_dkg_deals_await_canceled_by_error -->
<g id="edge3" class="edge">
<title>state_dkg_deals_await_confirmations-&gt;state_dkg_deals_await_canceled_by_error</title>
<path fill="none" stroke="#000000" d="M1373.3923,-485.3874C1323.3287,-474.3832 1260.5496,-456.3832 1209.6871,-428.4 1179.7156,-411.9105 1151.138,-384.9623 1132.2891,-365.0706"/>
<polygon fill="#000000" stroke="#000000" points="1134.6865,-362.5086 1125.3167,-357.5631 1129.5573,-367.2723 1134.6865,-362.5086"/>
<text text-anchor="middle" x="1335.362" y="-415.8" font-family="Times,serif" font-size="14.00" fill="#000000">event_dkg_deal_confirm_canceled_by_error</text>
</g>
<!-- state_dkg_responses_await_confirmations -->
<g id="node5" class="node">
<title>state_dkg_responses_await_confirmations</title>
<ellipse fill="none" stroke="#000000" cx="1460.8037" cy="-339.6" rx="174.7407" ry="18"/>
<text text-anchor="middle" x="1460.8037" y="-335.4" font-family="Times,serif" font-size="14.00" fill="#000000">state_dkg_responses_await_confirmations</text>
</g>
<!-- state_dkg_deals_await_confirmations&#45;&gt;state_dkg_responses_await_confirmations -->
<g id="edge12" class="edge">
<title>state_dkg_deals_await_confirmations-&gt;state_dkg_responses_await_confirmations</title>
<path fill="none" stroke="#000000" d="M1460.8037,-482.2668C1460.8037,-454.5204 1460.8037,-401.2815 1460.8037,-368.2681"/>
<polygon fill="#000000" stroke="#000000" points="1464.3038,-367.9136 1460.8037,-357.9137 1457.3038,-367.9137 1464.3038,-367.9136"/>
<text text-anchor="middle" x="1564.9924" y="-415.8" font-family="Times,serif" font-size="14.00" fill="#000000">event_dkg_deals_confirmed_internal</text>
</g>
<!-- state_dkg_deals_await_canceled_by_timeout -->
<g id="node8" class="node">
<title>state_dkg_deals_await_canceled_by_timeout</title>
<ellipse fill="none" stroke="#000000" cx="2312.8037" cy="-339.6" rx="185.7607" ry="18"/>
<text text-anchor="middle" x="2312.8037" y="-335.4" font-family="Times,serif" font-size="14.00" fill="#000000">state_dkg_deals_await_canceled_by_timeout</text>
</g>
<!-- state_dkg_deals_await_confirmations&#45;&gt;state_dkg_deals_await_canceled_by_timeout -->
<g id="edge9" class="edge">
<title>state_dkg_deals_await_confirmations-&gt;state_dkg_deals_await_canceled_by_timeout</title>
<path fill="none" stroke="#000000" d="M1542.497,-484.9818C1701.0454,-455.0586 2049.6438,-389.2668 2218.0495,-357.4832"/>
<polygon fill="#000000" stroke="#000000" points="2218.7188,-360.9187 2227.8962,-355.6248 2217.4205,-354.0402 2218.7188,-360.9187"/>
<text text-anchor="middle" x="2073.7554" y="-415.8" font-family="Times,serif" font-size="14.00" fill="#000000">event_dkg_deals_confirm_canceled_by_timeout_internal</text>
</g>
<!-- state_dkg_responses_await_confirmations&#45;&gt;state_dkg_responses_await_confirmations -->
<g id="edge4" class="edge">
<title>state_dkg_responses_await_confirmations-&gt;state_dkg_responses_await_confirmations</title>
<path fill="none" stroke="#000000" d="M1633.9415,-341.9566C1634.1437,-341.8676 1634.3342,-341.7775 1634.5078,-341.6816"/>
<polygon fill="#000000" stroke="#000000" points="1638.6793,-346.7199 1633.9415,-337.2434 1631.7356,-347.6061 1638.6793,-346.7199"/>
<text text-anchor="middle" x="1746.4367" y="-335.4" font-family="Times,serif" font-size="14.00" fill="#000000">event_dkg_response_confirm_received</text>
</g>
<!-- state_dkg_responses_await_confirmations&#45;&gt;state_dkg_responses_await_confirmations -->
<g id="edge20" class="edge">
<title>state_dkg_responses_await_confirmations-&gt;state_dkg_responses_await_confirmations</title>
<path fill="none" stroke="#000000" d="M1581.6965,-352.6204C1699.9736,-357.5729 1856.4494,-353.2328 1856.4494,-339.6 1856.4494,-326.3533 1708.711,-321.8803 1591.8329,-326.1812"/>
<polygon fill="#000000" stroke="#000000" points="1591.5513,-322.6895 1581.6965,-326.5796 1591.8263,-329.6841 1591.5513,-322.6895"/>
<text text-anchor="middle" x="1973.8597" y="-335.4" font-family="Times,serif" font-size="14.00" fill="#000000">    event_dkg_responses_validate_internal</text>
</g>
<!-- state_dkg_master_key_await_confirmations -->
<g id="node6" class="node">
<title>state_dkg_master_key_await_confirmations</title>
<ellipse fill="none" stroke="#000000" cx="553.8037" cy="-178.8" rx="181.6834" ry="18"/>
<text text-anchor="middle" x="553.8037" y="-174.6" font-family="Times,serif" font-size="14.00" fill="#000000">state_dkg_master_key_await_confirmations</text>
</g>
<!-- state_dkg_responses_await_confirmations&#45;&gt;state_dkg_master_key_await_confirmations -->
<g id="edge5" class="edge">
<title>state_dkg_responses_await_confirmations-&gt;state_dkg_master_key_await_confirmations</title>
<path fill="none" stroke="#000000" d="M1373.0126,-324.0357C1203.1728,-293.9252 830.7008,-227.8905 652.5397,-196.3047"/>
<polygon fill="#000000" stroke="#000000" points="653.1035,-192.8501 642.646,-194.5507 651.8815,-199.7427 653.1035,-192.8501"/>
<text text-anchor="middle" x="1151.822" y="-255" font-family="Times,serif" font-size="14.00" fill="#000000">event_dkg_responses_confirmed_internal</text>
</g>
<!-- state_dkg_responses_sending_canceled_by_timeout -->
<g id="node9" class="node">
<title>state_dkg_responses_sending_canceled_by_timeout</title>
<ellipse fill="none" stroke="#000000" cx="1460.8037" cy="-178.8" rx="212.9148" ry="18"/>
<text text-anchor="middle" x="1460.8037" y="-174.6" font-family="Times,serif" font-size="14.00" fill="#000000">state_dkg_responses_sending_canceled_by_timeout</text>
</g>
<!-- state_dkg_responses_await_confirmations&#45;&gt;state_dkg_responses_sending_canceled_by_timeout -->
<g id="edge10" class="edge">
<title>state_dkg_responses_await_confirmations-&gt;state_dkg_responses_sending_canceled_by_timeout</title>
<path fill="none" stroke="#000000" d="M1460.8037,-321.4668C1460.8037,-293.7204 1460.8037,-240.4815 1460.8037,-207.4681"/>
<polygon fill="#000000" stroke="#000000" points="1464.3038,-207.1136 1460.8037,-197.1137 1457.3038,-207.1137 1464.3038,-207.1136"/>
<text text-anchor="middle" x="1631.8627" y="-255" font-family="Times,serif" font-size="14.00" fill="#000000">event_dkg_response_confirm_canceled_by_timeout_internal</text>
</g>
<!-- state_dkg_responses_await_canceled_by_error -->
<g id="node10" class="node">
<title>state_dkg_responses_await_canceled_by_error</title>
<ellipse fill="none" stroke="#000000" cx="1867.8037" cy="-178.8" rx="192.6649" ry="18"/>
<text text-anchor="middle" x="1867.8037" y="-174.6" font-family="Times,serif" font-size="14.00" fill="#000000">state_dkg_responses_await_canceled_by_error</text>
</g>
<!-- state_dkg_responses_await_confirmations&#45;&gt;state_dkg_responses_await_canceled_by_error -->
<g id="edge13" class="edge">
<title>state_dkg_responses_await_confirmations-&gt;state_dkg_responses_await_canceled_by_error</title>
<path fill="none" stroke="#000000" d="M1568.9131,-325.4202C1654.0944,-312.6892 1764.6338,-292.239 1802.8037,-267.6 1826.0837,-252.5726 1843.8482,-226.0713 1854.8747,-205.9199"/>
<polygon fill="#000000" stroke="#000000" points="1858.0627,-207.3767 1859.6017,-196.8942 1851.8616,-204.129 1858.0627,-207.3767"/>
<text text-anchor="middle" x="1960.1916" y="-255" font-family="Times,serif" font-size="14.00" fill="#000000">event_dkg_response_confirm_canceled_by_error</text>
</g>
<!-- state_dkg_master_key_await_confirmations&#45;&gt;state_dkg_master_key_await_confirmations -->
<g id="edge8" class="edge">
<title>state_dkg_master_key_await_confirmations-&gt;state_dkg_master_key_await_confirmations</title>
<path fill="none" stroke="#000000" d="M734.2535,-180.9606C734.4284,-180.8782 734.593,-180.7949 734.743,-180.7064"/>
<polygon fill="#000000" stroke="#000000" points="738.9236,-186.1494 734.2535,-176.6394 731.9737,-186.986 738.9236,-186.1494"/>
<text text-anchor="middle" x="851.859" y="-174.6" font-family="Times,serif" font-size="14.00" fill="#000000">event_dkg_master_key_validate_internal</text>
</g>
<!-- state_dkg_master_key_await_confirmations&#45;&gt;state_dkg_master_key_await_confirmations -->
<g id="edge21" class="edge">
<title>state_dkg_master_key_await_confirmations-&gt;state_dkg_master_key_await_confirmations</title>
<path fill="none" stroke="#000000" d="M679.4777,-191.7991C803.1526,-196.7854 967.3226,-192.4523 967.3226,-178.8 967.3226,-165.521 812.0079,-161.0586 689.7096,-165.4128"/>
<polygon fill="#000000" stroke="#000000" points="689.3378,-161.9243 679.4777,-165.8009 689.6032,-168.9193 689.3378,-161.9243"/>
<text text-anchor="middle" x="1090.3609" y="-174.6" font-family="Times,serif" font-size="14.00" fill="#000000">   event_dkg_master_key_confirm_received</text>
</g>
<!-- state_dkg_master_key_await_canceled_by_error -->
<g id="node7" class="node">
<title>state_dkg_master_key_await_canceled_by_error</title>
<ellipse fill="none" stroke="#000000" cx="199.8037" cy="-18" rx="199.6076" ry="18"/>
<text text-anchor="middle" x="199.8037" y="-13.8" font-family="Times,serif" font-size="14.00" fill="#000000">state_dkg_master_key_await_canceled_by_error</text>
</g>
<!-- state_dkg_master_key_await_confirmations&#45;&gt;state_dkg_master_key_await_canceled_by_error -->
<g id="edge6" class="edge">
<title>state_dkg_master_key_await_confirmations-&gt;state_dkg_master_key_await_canceled_by_error</title>
<path fill="none" stroke="#000000" d="M417.9931,-166.8346C287.8381,-153.9598 108.0217,-131.9186 86.4767,-106.8 63.5238,-80.04 100.2651,-55.8113 137.8895,-39.4479"/>
<polygon fill="#000000" stroke="#000000" points="139.5592,-42.5437 147.4382,-35.4605 136.8617,-36.0842 139.5592,-42.5437"/>
<text text-anchor="middle" x="232.9672" y="-94.2" font-family="Times,serif" font-size="14.00" fill="#000000">event_dkg_master_key_confirm_canceled_by_error</text>
</g>
<!-- state_dkg_master_key_await_confirmations&#45;&gt;state_dkg_master_key_await_canceled_by_error -->
<g id="edge7" class="edge">
<title>state_dkg_master_key_await_confirmations-&gt;state_dkg_master_key_await_canceled_by_error</title>
<path fill="none" stroke="#000000" d="M475.5257,-162.528C441.8687,-151.8588 404.6221,-134.5462 379.7151,-106.8 374.5185,-101.0111 380.0056,-95.7841 374.8037,-90 352.4062,-65.0955 320.0923,-48.6079 289.313,-37.7832"/>
<polygon fill="#000000" stroke="#000000" points="290.4166,-34.4618 279.8227,-34.6026 288.1921,-41.099 290.4166,-34.4618"/>
<text text-anchor="middle" x="550.848" y="-94.2" font-family="Times,serif" font-size="14.00" fill="#000000">event_dkg_master_key_confirm_canceled_by_error_internal</text>
</g>
<!-- state_dkg_master_key_await_canceled_by_timeout -->
<g id="node11" class="node">
<title>state_dkg_master_key_await_canceled_by_timeout</title>
<ellipse fill="none" stroke="#000000" cx="727.8037" cy="-18" rx="210.6018" ry="18"/>
<text text-anchor="middle" x="727.8037" y="-13.8" font-family="Times,serif" font-size="14.00" fill="#000000">state_dkg_master_key_await_canceled_by_timeout</text>
</g>
<!-- state_dkg_master_key_await_confirmations&#45;&gt;state_dkg_master_key_await_canceled_by_timeout -->
<g id="edge14" class="edge">
<title>state_dkg_master_key_await_confirmations-&gt;state_dkg_master_key_await_canceled_by_timeout</title>
<path fill="none" stroke="#000000" d="M636.5823,-162.7551C668.3742,-152.2585 701.8001,-135.0171 721.8037,-106.8 734.1121,-89.4378 734.9128,-65.0531 733.0259,-46.2284"/>
<polygon fill="#000000" stroke="#000000" points="736.4759,-45.6173 731.7143,-36.1528 729.5345,-46.521 736.4759,-45.6173"/>
<text text-anchor="middle" x="908.6383" y="-94.2" font-family="Times,serif" font-size="14.00" fill="#000000">event_dkg_master_key_confirm_canceled_by_timeout_internal</text>
</g>
<!-- state_dkg_master_key_collected -->
<g id="node14" class="node">
<title>state_dkg_master_key_collected</title>
<ellipse fill="none" stroke="#000000" cx="1091.8037" cy="-18" rx="137.1406" ry="18"/>
<text text-anchor="middle" x="1091.8037" y="-13.8" font-family="Times,serif" font-size="14.00" fill="#000000">state_dkg_master_key_collected</text>
</g>
<!-- state_dkg_master_key_await_confirmations&#45;&gt;state_dkg_master_key_collected -->
<g id="edge22" class="edge">
<title>state_dkg_master_key_await_confirmations-&gt;state_dkg_master_key_collected</title>
<path fill="none" stroke="#000000" d="M702.1279,-168.3674C850.6644,-156.418 1060.8886,-134.8203 1086.8037,-106.8 1101.5563,-90.849 1101.6019,-65.6049 1098.6509,-46.1028"/>
<polygon fill="#000000" stroke="#000000" points="1102.0868,-45.4345 1096.8375,-36.2316 1095.202,-46.6994 1102.0868,-45.4345"/>
<text text-anchor="middle" x="1218.8753" y="-94.2" font-family="Times,serif" font-size="14.00" fill="#000000">event_dkg_master_key_confirmed_internal</text>
</g>
</g>
</svg>