<?xml version="1.0" encoding="UTF-8" standalone="no"?><!DOCTYPE svg PUBLIC "-//W3C//DTD SVG 1.1//EN" "http://www.w3.org/Graphics/SVG/1.1/DTD/svg11.dtd"><!-- Generated by graphviz version 2.40.1 (20161225.0304)
 --><!-- Title: fsm Pages: 1 --><svg xmlns="http://www.w3.org/2000/svg" xmlns:xlink="http://www.w3.org/1999/xlink" width="1530pt" height="386pt" viewBox="0.00 0.00 1529.92 386.40">
<g id="graph0" class="graph" transform="scale(1 1) rotate(0) translate(14.4 372)">
<title>fsm</title>
<polygon fill="#ffffff" stroke="transparent" points="-14.4,14.4 -14.4,-372 1515.5197,-372 1515.5197,14.4 -14.4,14.4"/>
<!-- __idle -->
<g id="node1" class="node">
<title>__idle</title>
<ellipse fill="none" stroke="#000000" cx="505.1238" cy="-339.6" rx="35.3528" ry="18"/>
<text text-anchor="middle" x="505.1238" y="-335.4" font-family="Times,serif" font-size="14.00" fill="#000000">__idle</text>
</g>
<!-- state_sig_proposal_await_participants_confirmations -->
<g id="node2" class="node">
<title>state_sig_proposal_await_participants_confirmations</title>
<ellipse fill="none" stroke="#000000" cx="505.1238" cy="-178.8" rx="216.9919" ry="18"/>
<text text-anchor="middle" x="505.1238" y="-174.6" font-family="Times,serif" font-size="14.00" fill="#000000">state_sig_proposal_await_participants_confirmations</text>
</g>
<!-- __idle&#45;&gt;state_sig_proposal_await_participants_confirmations -->
<g id="edge1" class="edge">
<title>__idle-&gt;state_sig_proposal_await_participants_confirmations</title>
<path fill="none" stroke="#000000" d="M505.1238,-321.4668C505.1238,-293.7204 505.1238,-240.4815 505.1238,-207.4681"/>
<polygon fill="#000000" stroke="#000000" points="508.6239,-207.1136 505.1238,-197.1137 501.6239,-207.1137 508.6239,-207.1136"/>
<text text-anchor="middle" x="572.3924" y="-255" font-family="Times,serif" font-size="14.00" fill="#000000">event_sig_proposal_init</text>
</g>
<!-- state_sig_proposal_await_participants_confirmations&#45;&gt;state_sig_proposal_await_participants_confirmations -->
<g id="edge2" class="edge">
<title>state_sig_proposal_await_participants_confirmations-&gt;state_sig_proposal_await_participants_confirmations</title>
<path fill="none" stroke="#000000" d="M718.0324,-182.3471C731.7984,-181.5188 740.1197,-180.3365 740.1197,-178.8 740.1197,-177.6957 735.8209,-176.7743 728.2914,-176.0358"/>
<polygon fill="#000000" stroke="#000000" points="728.2698,-172.5241 718.0324,-175.2529 727.7371,-179.5038 728.2698,-172.5241"/>
<text text-anchor="middle" x="874.4483" y="-174.6" font-family="Times,serif" font-size="14.00" fill="#000000">       event_sig_proposal_decline_by_participant</text>
</g>
<!-- state_sig_proposal_await_participants_confirmations&#45;&gt;state_sig_proposal_await_participants_confirmations -->
<g id="edge4" class="edge">
<title>state_sig_proposal_await_participants_confirmations-&gt;state_sig_proposal_await_participants_confirmations</title>
<path fill="none" stroke="#000000" d="M691.4932,-188.0199C837.2116,-190.402 1008.7769,-187.3286 1008.7769,-178.8 1008.7769,-170.4712 845.1595,-167.3451 701.7791,-169.4216"/>
<polygon fill="#000000" stroke="#000000" points="701.4381,-165.9263 691.4932,-169.5801 701.546,-172.9255 701.4381,-165.9263"/>
<text text-anchor="middle" x="1099.3674" y="-174.6" font-family="Times,serif" font-size="14.00" fill="#000000">      event_sig_proposal_validate</text>
</g>
<!-- state_sig_proposal_await_participants_confirmations&#45;&gt;state_sig_proposal_await_participants_confirmations -->
<g id="edge7" class="edge">
<title>state_sig_proposal_await_participants_confirmations-&gt;state_sig_proposal_await_participants_confirmations</title>
<path fill="none" stroke="#000000" d="M668.6037,-190.6802C874.8576,-197.3206 1189.9579,-193.3605 1189.9579,-178.8 1189.9579,-164.4741 884.9304,-160.4098 678.657,-166.607"/>
<polygon fill="#000000" stroke="#000000" points="678.49,-163.1105 668.6037,-166.9198 678.7077,-170.1071 678.49,-163.1105"/>
<text text-anchor="middle" x="1327.9825" y="-174.6" font-family="Times,serif" font-size="14.00" fill="#000000">        event_sig_proposal_confirm_by_participant</text>
</g>
<!-- state_sig_proposal_canceled_by_participant -->
<g id="node3" class="node">
<title>state_sig_proposal_canceled_by_participant</title>
<ellipse fill="none" stroke="#000000" cx="182.1238" cy="-18" rx="182.2476" ry="18"/>
<text text-anchor="middle" x="182.1238" y="-13.8" font-family="Times,serif" font-size="14.00" fill="#000000">state_sig_proposal_canceled_by_participant</text>
</g>
<!-- state_sig_proposal_await_participants_confirmations&#45;&gt;state_sig_proposal_canceled_by_participant -->
<g id="edge3" class="edge">
<title>state_sig_proposal_await_participants_confirmations-&gt;state_sig_proposal_canceled_by_participant</title>
<path fill="none" stroke="#000000" d="M415.1153,-162.3844C369.2255,-151.3454 313.8769,-133.7582 269.428,-106.8 242.5778,-90.5155 218.0911,-64.1233 201.9295,-44.3356"/>
<polygon fill="#000000" stroke="#000000" points="204.5005,-41.9459 195.5302,-36.3083 199.0269,-46.3094 204.5005,-41.9459"/>
<text text-anchor="middle" x="385.9717" y="-94.2" font-family="Times,serif" font-size="14.00" fill="#000000">event_sig_proposal_canceled_participant</text>
</g>
<!-- state_sig_proposal_collected -->
<g id="node4" class="node">
<title>state_sig_proposal_collected</title>
<ellipse fill="none" stroke="#000000" cx="505.1238" cy="-18" rx="122.691" ry="18"/>
<text text-anchor="middle" x="505.1238" y="-13.8" font-family="Times,serif" font-size="14.00" fill="#000000">state_sig_proposal_collected</text>
</g>
<!-- state_sig_proposal_await_participants_confirmations&#45;&gt;state_sig_proposal_collected -->
<g id="edge5" class="edge">
<title>state_sig_proposal_await_participants_confirmations-&gt;state_sig_proposal_collected</title>
<path fill="none" stroke="#000000" d="M505.1238,-160.6668C505.1238,-132.9204 505.1238,-79.6815 505.1238,-46.6681"/>
<polygon fill="#000000" stroke="#000000" points="508.6239,-46.3136 505.1238,-36.3137 501.6239,-46.3137 508.6239,-46.3136"/>
<text text-anchor="middle" x="599.9892" y="-94.2" font-family="Times,serif" font-size="14.00" fill="#000000">event_sig_proposal_set_validated</text>
</g>
<!-- state_sig_proposal_canceled_by_timeout -->
<g id="node5" class="node">
<title>state_sig_proposal_canceled_by_timeout</title>
<ellipse fill="none" stroke="#000000" cx="816.1238" cy="-18" rx="170.1712" ry="18"/>
<text text-anchor="middle" x="816.1238" y="-13.8" font-family="Times,serif" font-size="14.00" fill="#000000">state_sig_proposal_canceled_by_timeout</text>
</g>
<!-- state_sig_proposal_await_participants_confirmations&#45;&gt;state_sig_proposal_canceled_by_timeout -->
<g id="edge6" class="edge">
<title>state_sig_proposal_await_participants_confirmations-&gt;state_sig_proposal_canceled_by_timeout</title>
<path fill="none" stroke="#000000" d="M565.685,-161.3993C604.9902,-148.8952 656.6153,-130.1495 699.1238,-106.8 731.9686,-88.7586 765.6587,-62.1689 788.4007,-42.7899"/>
<polygon fill="#000000" stroke="#000000" points="790.9781,-45.1888 796.2622,-36.0057 786.4048,-39.8893 790.9781,-45.1888"/>
<text text-anchor="middle" x="833.4268" y="-94.2" font-family="Times,serif" font-size="14.00" fill="#000000">event_sig_proposal_canceled_timeout</text>
</g>
</g>
</svg>