<?xml version="1.0" encoding="UTF-8" standalone="no"?><!DOCTYPE svg PUBLIC "-//W3C//DTD SVG 1.1//EN" "http://www.w3.org/Graphics/SVG/1.1/DTD/svg11.dtd"><!-- Generated by graphviz version 2.40.1 (20161225.0304)
 --><!-- Title: fsm Pages: 1 --><svg xmlns="http://www.w3.org/2000/svg" xmlns:xlink="http://www.w3.org/1999/xlink" width="2012pt" height="708pt" viewBox="0.00 0.00 2011.63 708.00">
<g id="graph0" class="graph" transform="scale(1 1) rotate(0) translate(14.4 693.6)">
<title>fsm</title>
<polygon fill="#ffffff" stroke="transparent" points="-14.4,14.4 -14.4,-693.6 1997.2316,-693.6 1997.2316,14.4 -14.4,14.4"/>
<!-- state_dkg_master_key_collected -->
<g id="node1" class="node">
<title>state_dkg_master_key_collected</title>
<ellipse fill="none" stroke="#000000" cx="1318.3098" cy="-661.2" rx="137.1406" ry="18"/>
<text text-anchor="middle" x="1318.3098" y="-657" font-family="Times,serif" font-size="14.00" fill="#000000">state_dkg_master_key_collected</text>
</g>
<!-- stage_signing_idle -->
<g id="node2" class="node">
<title>stage_signing_idle</title>
<ellipse fill="none" stroke="#000000" cx="1318.3098" cy="-500.4" rx="83.4079" ry="18"/>
<text text-anchor="middle" x="1318.3098" y="-496.2" font-family="Times,serif" font-size="14.00" fill="#000000">stage_signing_idle</text>
</g>
<!-- state_dkg_master_key_collected&#45;&gt;stage_signing_idle -->
<g id="edge1" class="edge">
<title>state_dkg_master_key_collected-&gt;stage_signing_idle</title>
<path fill="none" stroke="#000000" d="M1318.3098,-643.0668C1318.3098,-615.3204 1318.3098,-562.0815 1318.3098,-529.0681"/>
<polygon fill="#000000" stroke="#000000" points="1321.8099,-528.7136 1318.3098,-518.7137 1314.8099,-528.7137 1321.8099,-528.7136"/>
<text text-anchor="middle" x="1370.4185" y="-576.6" font-family="Times,serif" font-size="14.00" fill="#000000">event_signing_init</text>
</g>
<!-- state_signing_await_confirmations -->
<g id="node3" class="node">
<title>state_signing_await_confirmations</title>
<ellipse fill="none" stroke="#000000" cx="765.3098" cy="-339.6" rx="146.4059" ry="18"/>
<text text-anchor="middle" x="765.3098" y="-335.4" font-family="Times,serif" font-size="14.00" fill="#000000">state_signing_await_confirmations</text>
</g>
<!-- stage_signing_idle&#45;&gt;state_signing_await_confirmations -->
<g id="edge4" class="edge">
<title>stage_signing_idle-&gt;state_signing_await_confirmations</title>
<path fill="none" stroke="#000000" d="M1268.2595,-485.8465C1168.5108,-456.8418 944.8896,-391.8178 832.4951,-359.136"/>
<polygon fill="#000000" stroke="#000000" points="833.2085,-355.6985 822.629,-356.2671 831.254,-362.4201 833.2085,-355.6985"/>
<text text-anchor="middle" x="1113.1331" y="-415.8" font-family="Times,serif" font-size="14.00" fill="#000000">event_signing_start</text>
</g>
<!-- state_signing_await_confirmations&#45;&gt;state_signing_await_confirmations -->
<g id="edge8" class="edge">
<title>state_signing_await_confirmations-&gt;state_signing_await_confirmations</title>
<path fill="none" stroke="#000000" d="M908.0359,-343.591C921.2106,-342.7663 929.5127,-341.4359 929.5127,-339.6 929.5127,-338.3091 925.4082,-337.2682 918.3915,-336.4772"/>
<polygon fill="#000000" stroke="#000000" points="918.2934,-332.9568 908.0359,-335.609 917.7085,-339.9323 918.2934,-332.9568"/>
<text text-anchor="middle" x="1076.4826" y="-335.4" font-family="Times,serif" font-size="14.00" fill="#000000">      event_signing_proposal_confirm_by_participant</text>
</g>
<!-- state_signing_await_confirmations&#45;&gt;state_signing_await_confirmations -->
<g id="edge9" class="edge">
<title>state_signing_await_confirmations-&gt;state_signing_await_confirmations</title>
<path fill="none" stroke="#000000" d="M894.4054,-348.0893C1031.861,-351.6876 1223.4525,-348.8578 1223.4525,-339.6 1223.4525,-330.5682 1041.1018,-327.6544 904.5662,-330.8586"/>
<polygon fill="#000000" stroke="#000000" points="904.3155,-327.3637 894.4054,-331.1107 904.4892,-334.3615 904.3155,-327.3637"/>
<text text-anchor="middle" x="1368.4764" y="-335.4" font-family="Times,serif" font-size="14.00" fill="#000000">      event_signing_proposal_decline_by_participant</text>
</g>
<!-- state_signing_await_confirmations&#45;&gt;state_signing_await_confirmations -->
<g id="edge11" class="edge">
<title>state_signing_await_confirmations-&gt;state_signing_await_confirmations</title>
<path fill="none" stroke="#000000" d="M885.3898,-349.9196C1099.6495,-358.6258 1513.5003,-355.1859 1513.5003,-339.6 1513.5003,-324.2576 1112.4813,-320.6847 895.5771,-328.8812"/>
<polygon fill="#000000" stroke="#000000" points="895.2451,-325.3914 885.3898,-329.2804 895.5193,-332.3861 895.2451,-325.3914"/>
<text text-anchor="middle" x="1635.1946" y="-335.4" font-family="Times,serif" font-size="14.00" fill="#000000">      event_signing_proposal_await_validate</text>
</g>
<!-- state_signing_await_partial_signs -->
<g id="node4" class="node">
<title>state_signing_await_partial_signs</title>
<ellipse fill="none" stroke="#000000" cx="1146.3098" cy="-178.8" rx="141.8303" ry="18"/>
<text text-anchor="middle" x="1146.3098" y="-174.6" font-family="Times,serif" font-size="14.00" fill="#000000">state_signing_await_partial_signs</text>
</g>
<!-- state_signing_await_confirmations&#45;&gt;state_signing_await_partial_signs -->
<g id="edge2" class="edge">
<title>state_signing_await_confirmations-&gt;state_signing_await_partial_signs</title>
<path fill="none" stroke="#000000" d="M854.3034,-325.2796C908.352,-314.3095 977.621,-296.1077 1034.3098,-267.6 1067.283,-251.0184 1099.7478,-223.7297 1121.1647,-203.7725"/>
<polygon fill="#000000" stroke="#000000" points="1123.6863,-206.2049 1128.5358,-196.785 1118.8705,-201.1247 1123.6863,-206.2049"/>
<text text-anchor="middle" x="1167.6205" y="-255" font-family="Times,serif" font-size="14.00" fill="#000000">event_signing_proposal_set_validated</text>
</g>
<!-- state_signing_confirmations_await_cancelled_by_timeout -->
<g id="node8" class="node">
<title>state_signing_confirmations_await_cancelled_by_timeout</title>
<ellipse fill="none" stroke="#000000" cx="236.3098" cy="-178.8" rx="236.1199" ry="18"/>
<text text-anchor="middle" x="236.3098" y="-174.6" font-family="Times,serif" font-size="14.00" fill="#000000">state_signing_confirmations_await_cancelled_by_timeout</text>
</g>
<!-- state_signing_await_confirmations&#45;&gt;state_signing_confirmations_await_cancelled_by_timeout -->
<g id="edge10" class="edge">
<title>state_signing_await_confirmations-&gt;state_signing_confirmations_await_cancelled_by_timeout</title>
<path fill="none" stroke="#000000" d="M696.4864,-323.6952C639.6177,-310.1176 556.9651,-289.3782 485.8132,-267.6 418.2829,-246.9303 341.9674,-219.0961 291.72,-200.136"/>
<polygon fill="#000000" stroke="#000000" points="292.9305,-196.8518 282.339,-196.5849 290.4523,-203.3985 292.9305,-196.8518"/>
<text text-anchor="middle" x="616.5581" y="-255" font-family="Times,serif" font-size="14.00" fill="#000000">event_signing_proposal_canceled_by_timeout</text>
</g>
<!-- state_signing_confirmations_await_cancelled_by_participant -->
<g id="node9" class="node">
<title>state_signing_confirmations_await_cancelled_by_participant</title>
<ellipse fill="none" stroke="#000000" cx="738.3098" cy="-178.8" rx="248.1962" ry="18"/>
<text text-anchor="middle" x="738.3098" y="-174.6" font-family="Times,serif" font-size="14.00" fill="#000000">state_signing_confirmations_await_cancelled_by_participant</text>
</g>
<!-- state_signing_await_confirmations&#45;&gt;state_signing_confirmations_await_cancelled_by_participant -->
<g id="edge13" class="edge">
<title>state_signing_await_confirmations-&gt;state_signing_confirmations_await_cancelled_by_participant</title>
<path fill="none" stroke="#000000" d="M762.2651,-321.4668C757.5859,-293.5998 748.589,-240.0181 743.0514,-207.0386"/>
<polygon fill="#000000" stroke="#000000" points="746.4926,-206.396 741.3849,-197.1137 739.5892,-207.5552 746.4926,-206.396"/>
<text text-anchor="middle" x="891.103" y="-255" font-family="Times,serif" font-size="14.00" fill="#000000">event_signing_proposal_canceled_by_participant</text>
</g>
<!-- state_signing_await_partial_signs&#45;&gt;state_signing_await_partial_signs -->
<g id="edge14" class="edge">
<title>state_signing_await_partial_signs-&gt;state_signing_await_partial_signs</title>
<path fill="none" stroke="#000000" d="M1278.6658,-185.3314C1295.2868,-184.1802 1306.225,-182.0031 1306.225,-178.8 1306.225,-176.2976 1299.5488,-174.4213 1288.7025,-173.1713"/>
<polygon fill="#000000" stroke="#000000" points="1288.9392,-169.6786 1278.6658,-172.2686 1288.3121,-176.6504 1288.9392,-169.6786"/>
<text text-anchor="middle" x="1419.751" y="-174.6" font-family="Times,serif" font-size="14.00" fill="#000000">      event_signing_partial_sign_received</text>
</g>
<!-- state_signing_await_partial_signs&#45;&gt;state_signing_await_partial_signs -->
<g id="edge15" class="edge">
<title>state_signing_await_partial_signs-&gt;state_signing_await_partial_signs</title>
<path fill="none" stroke="#000000" d="M1250.13,-191.1055C1367.2108,-197.1401 1533.277,-193.0383 1533.277,-178.8 1533.277,-164.965 1376.4837,-160.7003 1260.1903,-166.0061"/>
<polygon fill="#000000" stroke="#000000" points="1259.9485,-162.5137 1250.13,-166.4945 1260.288,-169.5054 1259.9485,-162.5137"/>
<text text-anchor="middle" x="1666.6368" y="-174.6" font-family="Times,serif" font-size="14.00" fill="#000000">      event_signing_partial_signs_await_validate</text>
</g>
<!-- state_signing_partial_signs_collected -->
<g id="node5" class="node">
<title>state_signing_partial_signs_collected</title>
<ellipse fill="none" stroke="#000000" cx="1714.3098" cy="-18" rx="155.7158" ry="18"/>
<text text-anchor="middle" x="1714.3098" y="-13.8" font-family="Times,serif" font-size="14.00" fill="#000000">state_signing_partial_signs_collected</text>
</g>
<!-- state_signing_await_partial_signs&#45;&gt;state_signing_partial_signs_collected -->
<g id="edge6" class="edge">
<title>state_signing_await_partial_signs-&gt;state_signing_partial_signs_collected</title>
<path fill="none" stroke="#000000" d="M1249.1379,-166.3708C1326.1634,-155.3517 1433.4636,-136.3485 1524.3098,-106.8 1540.955,-101.386 1544.0825,-97.4325 1559.9296,-90 1595.963,-73.0999 1636.7751,-54.0708 1667.3836,-39.8215"/>
<polygon fill="#000000" stroke="#000000" points="1668.9494,-42.9534 1676.5386,-35.5605 1665.9956,-36.6071 1668.9494,-42.9534"/>
<text text-anchor="middle" x="1694.9999" y="-94.2" font-family="Times,serif" font-size="14.00" fill="#000000">event_signing_partial_signs_confirmed_internal</text>
</g>
<!-- state_signing_partial_signs_await_cancelled_by_error -->
<g id="node6" class="node">
<title>state_signing_partial_signs_await_cancelled_by_error</title>
<ellipse fill="none" stroke="#000000" cx="614.3098" cy="-18" rx="221.0501" ry="18"/>
<text text-anchor="middle" x="614.3098" y="-13.8" font-family="Times,serif" font-size="14.00" fill="#000000">state_signing_partial_signs_await_cancelled_by_error</text>
</g>
<!-- state_signing_await_partial_signs&#45;&gt;state_signing_partial_signs_await_cancelled_by_error -->
<g id="edge5" class="edge">
<title>state_signing_await_partial_signs-&gt;state_signing_partial_signs_await_cancelled_by_error</title>
<path fill="none" stroke="#000000" d="M1043.1607,-166.43C1027.1425,-164.5304 1010.7817,-162.6026 995.3098,-160.8 889.9096,-148.5198 591.5271,-185.9624 520.8636,-106.8 499.476,-82.84 531.4324,-57.8377 563.6469,-40.4911"/>
<polygon fill="#000000" stroke="#000000" points="565.4229,-43.513 572.6958,-35.8087 562.2059,-37.296 565.4229,-43.513"/>
<text text-anchor="middle" x="707.5329" y="-94.2" font-family="Times,serif" font-size="14.00" fill="#000000">event_signing_partial_signs_await_sign_cancel_by_error_internal</text>
</g>
<!-- state_signing_await_partial_signs&#45;&gt;state_signing_partial_signs_await_cancelled_by_error -->
<g id="edge12" class="edge">
<title>state_signing_await_partial_signs-&gt;state_signing_partial_signs_await_cancelled_by_error</title>
<path fill="none" stroke="#000000" d="M1076.9527,-163.0371C1030.3276,-151.0073 968.2735,-132.1709 917.0614,-106.8 905.4753,-101.0601 905.0407,-95.4382 893.3098,-90 839.262,-64.9446 775.1236,-47.6193 721.9784,-36.2543"/>
<polygon fill="#000000" stroke="#000000" points="722.6934,-32.8282 712.1879,-34.201 721.2566,-39.6791 722.6934,-32.8282"/>
<text text-anchor="middle" x="1036.434" y="-94.2" font-family="Times,serif" font-size="14.00" fill="#000000">event_signing_partial_sign_error_received</text>
</g>
<!-- state_signing_partial_signs_await_cancelled_by_timeout -->
<g id="node7" class="node">
<title>state_signing_partial_signs_await_cancelled_by_timeout</title>
<ellipse fill="none" stroke="#000000" cx="1178.3098" cy="-18" rx="232.0443" ry="18"/>
<text text-anchor="middle" x="1178.3098" y="-13.8" font-family="Times,serif" font-size="14.00" fill="#000000">state_signing_partial_signs_await_cancelled_by_timeout</text>
</g>
<!-- state_signing_await_partial_signs&#45;&gt;state_signing_partial_signs_await_cancelled_by_timeout -->
<g id="edge7" class="edge">
<title>state_signing_await_partial_signs-&gt;state_signing_partial_signs_await_cancelled_by_timeout</title>
<path fill="none" stroke="#000000" d="M1149.9185,-160.6668C1155.4641,-132.7998 1166.1271,-79.2181 1172.6902,-46.2386"/>
<polygon fill="#000000" stroke="#000000" points="1176.1462,-46.8045 1174.6653,-36.3137 1169.2808,-45.4382 1176.1462,-46.8045"/>
<text text-anchor="middle" x="1341.1556" y="-94.2" font-family="Times,serif" font-size="14.00" fill="#000000">event_signing_partial_signs_await_cancel_by_timeout_internal</text>
</g>
<!-- state_signing_partial_signs_collected&#45;&gt;stage_signing_idle -->
<g id="edge3" class="edge">
<title>state_signing_partial_signs_collected-&gt;stage_signing_idle</title>
<path fill="none" stroke="#000000" d="M1764.0444,-35.0949C1788.982,-46.4833 1816.8833,-64.1827 1831.3098,-90 1889.7138,-194.5177 1879.3954,-267.7087 1800.3098,-357.6 1746.7604,-418.4662 1517.0962,-466.1948 1395.1284,-487.7996"/>
<polygon fill="#000000" stroke="#000000" points="1394.3478,-484.383 1385.1036,-489.5595 1395.5582,-491.2776 1394.3478,-484.383"/>
<text text-anchor="middle" x="1922.5707" y="-255" font-family="Times,serif" font-size="14.00" fill="#000000">event_signing_restart</text>
</g>
</g>
</svg>